{
  "accessors": [
    {
      "bufferView": 2,
      "componentType": 5126,
      "count": 3257,
      "max": [
        257.02020263671875,
        47.397941589355469,
        143.51907348632812
      ],
      "min": [
        -27.258659362792969,
        -54.537899017333984,
        -143.53585815429688
      ],
      "type": "VEC3"
    },
    {
      "bufferView": 2,
      "byteOffset": 39084,
      "componentType": 5126,
      "count": 3257,
      "max": [
        0.99967944622039795,
        0.99982553720474243,
        0.99618923664093018
      ],
      "min": [
        -0.9967811107635498,
        -0.99958986043930054,
        -0.99620544910430908
      ],
      "type": "VEC3"
    },
    {
      "bufferView": 1,
      "componentType": 5126,
      "count": 3257,
      "max": [
        0,
        0
      ],
      "min": [
        0,
        0
      ],
      "type": "VEC2"
    },
    {
      "bufferView": 0,
      "componentType": 5125,
      "count": 15852,
      "max": [
        3256
      ],
      "min": [
        0
      ],
      "type": "SCALAR"
    },
    {
      "bufferView": 2,
      "byteOffset": 78168,
      "componentType": 5126,
      "count": 360,
      "max": [
        -129.93038940429688,
        -76.878028869628906,
        108.99993896484375
      ],
      "min": [
        -137.66961669921875,
        -82.622566223144531,
        101.07850646972656
      ],
      "type": "VEC3"
    },
    {
      "bufferView": 2,
      "byteOffset": 82488,
      "componentType": 5126,
      "count": 360,
      "max": [
        0.91908562183380127,
        0.98496544361114502,
        0.95772886276245117
      ],
      "min": [
        -0.92433500289916992,
        -0.98255950212478638,
        -0.95015072822570801
      ],
      "type": "VEC3"
    },
    {
      "bufferView": 0,
      "byteOffset": 63408,
      "componentType": 5125,
      "count": 420,
      "max": [
        359
      ],
      "min": [
        0
      ],
      "type": "SCALAR"
    },
    {
      "bufferView": 2,
      "byteOffset": 86808,
      "componentType": 5126,
      "count": 542,
      "max": [
        120.40245819091797,
        75.600784301757812,
        108.53013610839844
      ],
      "min": [
        -137.19598388671875,
        -82.149703979492188,
        -95.684516906738281
      ],
      "type": "VEC3"
    },
    {
      "bufferView": 2,
      "byteOffset": 93312,
      "componentType": 5126,
      "count": 542,
      "max": [
        0.96345007419586182,
        0.98955100774765015,
        0.97631299495697021
      ],
      "min": [
        -0.96345013380050659,
        -0.98938816785812378,
        -0.97631293535232544
      ],
      "type": "VEC3"
    },
    {
      "bufferView": 0,
      "byteOffset": 65088,
      "componentType": 5125,
      "count": 1572,
      "max": [
        541
      ],
      "min": [
        0
      ],
      "type": "SCALAR"
    },
    {
      "bufferView": 2,
      "byteOffset": 99816,
      "componentType": 5126,
      "count": 362,
      "max": [
        120.876953125,
        -77.620880126953125,
        -88.025100708007812
      ],
      "min": [
        112.78329467773438,
        -82.425079345703125,
        -96.156135559082031
      ],
      "type": "VEC3"
    },
    {
      "bufferView": 2,
      "byteOffset": 104160,
      "componentType": 5126,
      "count": 362,
      "max": [
        0.95206928253173828,
        0.94063204526901245,
        0.94304662942886353
      ],
      "min": [
        -0.94562280178070068,
        -0.94063717126846313,
        -0.94832491874694824
      ],
      "type": "VEC3"
    },
    {
      "bufferView": 0,
      "byteOffset": 71376,
      "componentType": 5125,
      "count": 420,
      "max": [
        361
      ],
      "min": [
        0
      ],
      "type": "SCALAR"
    },
    {
      "bufferView": 2,
      "byteOffset": 108504,
      "componentType": 5126,
      "count": 360,
      "max": [
        -129.93038940429688,
        -76.878028869628906,
        108.99993896484375
      ],
      "min": [
        -137.66961669921875,
        -82.622566223144531,
        101.07850646972656
      ],
      "type": "VEC3"
    },
    {
      "bufferView": 2,
      "byteOffset": 112824,
      "componentType": 5126,
      "count": 360,
      "max": [
        0.91908562183380127,
        0.98496544361114502,
        0.95772886276245117
      ],
      "min": [
        -0.92433500289916992,
        -0.98255950212478638,
        -0.95015072822570801
      ],
      "type": "VEC3"
    },
    {
      "bufferView": 0,
      "byteOffset": 73056,
      "componentType": 5125,
      "count": 420,
      "max": [
        359
      ],
      "min": [
        0
      ],
      "type": "SCALAR"
    },
    {
      "bufferView": 2,
      "byteOffset": 117144,
      "componentType": 5126,
      "count": 542,
      "max": [
        120.40245819091797,
        75.600784301757812,
        108.53013610839844
      ],
      "min": [
        -137.19598388671875,
        -82.149703979492188,
        -95.684516906738281
      ],
      "type": "VEC3"
    },
    {
      "bufferView": 2,
      "byteOffset": 123648,
      "componentType": 5126,
      "count": 542,
      "max": [
        0.96345007419586182,
        0.98955100774765015,
        0.97631299495697021
      ],
      "min": [
        -0.96345013380050659,
        -0.98938816785812378,
        -0.97631293535232544
      ],
      "type": "VEC3"
    },
    {
      "bufferView": 0,
      "byteOffset": 74736,
      "componentType": 5125,
      "count": 1572,
      "max": [
        541
      ],
      "min": [
        0
      ],
      "type": "SCALAR"
    },
    {
      "bufferView": 2,
      "byteOffset": 130152,
      "componentType": 5126,
      "count": 362,
      "max": [
        120.876953125,
        -77.620880126953125,
        -88.025100708007812
      ],
      "min": [
        112.78329467773438,
        -82.425079345703125,
        -96.156135559082031
      ],
      "type": "VEC3"
    },
    {
      "bufferView": 2,
      "byteOffset": 134496,
      "componentType": 5126,
      "count": 362,
      "max": [
        0.95206928253173828,
        0.94063204526901245,
        0.94304662942886353
      ],
      "min": [
        -0.94562280178070068,
        -0.94063717126846313,
        -0.94832491874694824
      ],
      "type": "VEC3"
    },
    {
      "bufferView": 0,
      "byteOffset": 81024,
      "componentType": 5125,
      "count": 420,
      "max": [
        361
      ],
      "min": [
        0
      ],
      "type": "SCALAR"
    }
  ],
  "asset": {
    "extras": {
      "author": "nhreisdorfer (https://sketchfab.com/nhreisdorfer)",
      "license": "CC-BY-4.0 (http://creativecommons.org/licenses/by/4.0/)",
      "source": "https://sketchfab.com/models/5381374ec4ce4be4afd172f387aa956d",
      "title": "Ring Chair"
    },
    "generator": "Sketchfab-3.20.7",
    "version": "2.0"
  },
  "bufferViews": [
    {
      "buffer": 0,
      "byteLength": 82704,
      "byteOffset": 0,
      "name": "floatBufferViews",
      "target": 34963
    },
    {
      "buffer": 0,
      "byteLength": 26056,
      "byteOffset": 82704,
      "byteStride": 8,
      "name": "floatBufferViews",
      "target": 34962
    },
    {
      "buffer": 0,
      "byteLength": 138840,
      "byteOffset": 108760,
      "byteStride": 12,
      "name": "floatBufferViews",
      "target": 34962
    }
  ],
  "buffers": [
    {
      "byteLength": 247600,
      "uri": "scene.bin"
    }
  ],
  "images": [
    {
      "uri": "textures/Estofado_metallicRoughness.png"
    },
    {
      "uri": "textures/Estofado_baseColor.jpg"
    }
  ],
  "materials": [
    {
      "doubleSided": true,
      "emissiveFactor": [
        0,
        0,
        0
      ],
      "name": "Estofado",
      "occlusionTexture": {
        "index": 0,
        "strength": 1,
        "texCoord": 0
      },
      "pbrMetallicRoughness": {
        "baseColorFactor": [
          1,
          1,
          1,
          1
        ],
        "baseColorTexture": {
          "index": 1,
          "texCoord": 0
        },
        "metallicFactor": 0,
        "roughnessFactor": 0.59999999999999998
      }
    },
    {
      "doubleSided": true,
      "emissiveFactor": [
        0,
        0,
        0
      ],
      "name": "material",
      "pbrMetallicRoughness": {
        "baseColorFactor": [
          0.059999999999999998,
          0.059999999999999998,
          0.059999999999999998,
          1
        ],
        "metallicFactor": 0,
        "roughnessFactor": 0.59999999999999998
      }
    },
    {
      "doubleSided": true,
      "emissiveFactor": [
        0,
        0,
        0
      ],
      "name": "pernas",
      "pbrMetallicRoughness": {
        "baseColorFactor": [
          0.51000000000000001,
          0.51000000000000001,
          0.51000000000000001,
          1
        ],
        "metallicFactor": 1,
        "roughnessFactor": 0.59999999999999998
      }
    }
  ],
  "meshes": [
    {
      "name": "Ring_Estofado_0",
      "primitives": [
        {
          "attributes": {
            "NORMAL": 1,
            "POSITION": 0,
            "TEXCOORD_0": 2
          },
          "indices": 3,
          "material": 0,
          "mode": 4
        }
      ]
    },
    {
      "name": "pe 02_pes_0",
      "primitives": [
        {
          "attributes": {
            "NORMAL": 5,
            "POSITION": 4
          },
          "indices": 6,
          "material": 1,
          "mode": 4
        }
      ]
    },
    {
      "name": "Line001_pernas_0",
      "primitives": [
        {
          "attributes": {
            "NORMAL": 8,
            "POSITION": 7
          },
          "indices": 9,
          "material": 2,
          "mode": 4
        }
      ]
    },
    {
      "name": "pe 01_pes_0",
      "primitives": [
        {
          "attributes": {
            "NORMAL": 11,
            "POSITION": 10
          },
          "indices": 12,
          "material": 1,
          "mode": 4
        }
      ]
    },
    {
      "name": "pe 003_pes_0",
      "primitives": [
        {
          "attributes": {
            "NORMAL": 14,
            "POSITION": 13
          },
          "indices": 15,
          "material": 1,
          "mode": 4
        }
      ]
    },
    {
      "name": "Line002_pernas_0",
      "primitives": [
        {
          "attributes": {
            "NORMAL": 17,
            "POSITION": 16
          },
          "indices": 18,
          "material": 2,
          "mode": 4
        }
      ]
    },
    {
      "name": "pe 004_pes_0",
      "primitives": [
        {
          "attributes": {
            "NORMAL": 20,
            "POSITION": 19
          },
          "indices": 21,
          "material": 1,
          "mode": 4
        }
      ]
    }
  ],
  "nodes": [
    {
      "children": [
        1
      ],
      "name": "RootNode (gltf orientation matrix)",
      "rotation": [
        -0.70710678118654746,
        -0,
        -0,
        0.70710678118654757
      ]
    },
    {
      "children": [
        2
      ],
      "name": "RootNode (model correction matrix)"
    },
    {
      "children": [
        3
      ],
      "matrix": [
        1,
        0,
        0,
        0,
        0,
        0,
        1,
        0,
        0,
        -1,
        0,
        0,
        0,
        0,
        0,
        1
      ],
      "name": "9d63cccc07bb451f8210e1b2f59f2068.fbx"
    },
    {
      "children": [
        4
      ],
      "name": "RootNode"
    },
    {
      "children": [
        5,
        7,
        14
      ],
      "matrix": [
        0.22497612237930298,
        0,
        0,
        0,
        0,
        4.9954734211277824e-17,
        -0.22497612237930298,
        0,
        0,
        0.22497612237930298,
        4.9954734211277824e-17,
        0,
        -3.9948952198028564,
        37.629158020019531,
        -3.6175956726074219,
        1
      ],
      "name": "RingChair"
    },
    {
      "children": [
        6
      ],
      "matrix": [
        -1.3345680627274703e-07,
        -0.81915204195062175,
        -0.57357643969056915,
        0,
        -1.3715885144316431e-07,
        -0.57357643969055405,
        0.81915204195063185,
        0,
        -0.99999999999998179,
        1.8799250101064757e-07,
        -3.5806273501748365e-08,
        0,
        -0.0083770751953125,
        132.71812438964844,
        114.91680908203125,
        1
      ],
      "name": "Ring"
    },
    {
      "mesh": 0,
      "name": "Ring_Estofado_0"
    },
    {
      "children": [
        8,
        10,
        12
      ],
      "matrix": [
        1,
        0,
        0,
        0,
        0,
        1,
        0,
        0,
        0,
        0,
        1,
        0,
        -6.4302635192871094,
        -7.5384531021118164,
        -84.214683532714844,
        1
      ],
      "name": "Group001"
    },
    {
      "children": [
        9
      ],
      "matrix": [
        -1.6292069959789046e-07,
        -0.9999999999999869,
        0,
        0,
        -1.6292069943135701e-07,
        2.6423307986078726e-14,
        0.9999999999999869,
        0,
        -0.99999999999997358,
        1.6292069943135701e-07,
        -1.6292069959789046e-07,
        0,
        6.4218864440917969,
        -8.396331787109375,
        3.5109024047851562,
        1
      ],
      "name": "pe 02"
    },
    {
      "mesh": 1,
      "name": "pe 02_pes_0"
    },
    {
      "children": [
        11
      ],
      "matrix": [
        -1.6292069959789046e-07,
        -0.9999999999999869,
        0,
        0,
        -1.6292069943135701e-07,
        2.6423307986078726e-14,
        0.9999999999999869,
        0,
        -0.99999999999997358,
        1.6292069943135701e-07,
        -1.6292069959789046e-07,
        0,
        6.4218864440917969,
        -8.396331787109375,
        3.5109024047851562,
        1
      ],
      "name": "Line001"
    },
    {
      "mesh": 2,
      "name": "Line001_pernas_0"
    },
    {
      "children": [
        13
      ],
      "matrix": [
        -1.6292069959789046e-07,
        -0.9999999999999869,
        0,
        0,
        -1.6292069943135701e-07,
        2.6423307986078726e-14,
        0.9999999999999869,
        0,
        -0.99999999999997358,
        1.6292069943135701e-07,
        -1.6292069959789046e-07,
        0,
        6.4218864440917969,
        -8.396331787109375,
        3.5109024047851562,
        1
      ],
      "name": "pe 01"
    },
    {
      "mesh": 3,
      "name": "pe 01_pes_0"
    },
    {
      "children": [
        15,
        17,
        19
      ],
      "matrix": [
        -1,
        -0,
        -0,
        -0,
        -0,
        0.99999999999999645,
        -8.7422783801367808e-08,
        -0,
        -0,
        8.7422783801367808e-08,
        0.99999999999999645,
        -0,
        -6.4831199645996094,
        -7.5384531021118164,
        -84.214683532714844,
        1
      ],
      "name": "Group002"
    },
    {
      "children": [
        16
      ],
      "matrix": [
        -1.6292069959789046e-07,
        -0.9999999999999869,
        7.1054273576010019e-15,
        0,
        -1.6292069943135701e-07,
        3.3528735343679728e-14,
        0.9999999999999869,
        0,
        -0.99999999999997358,
        1.6292069943135701e-07,
        -1.6292069959789046e-07,
        0,
        6.4218864440917969,
        -8.3963308334350586,
        3.5109024047851562,
        1
      ],
      "name": "pe 003"
    },
    {
      "mesh": 4,
      "name": "pe 003_pes_0"
    },
    {
      "children": [
        18
      ],
      "matrix": [
        -1.6292069959789046e-07,
        -0.9999999999999869,
        7.1054273576010019e-15,
        0,
        -1.6292069943135701e-07,
        3.3528735343679728e-14,
        0.9999999999999869,
        0,
        -0.99999999999997358,
        1.6292069943135701e-07,
        -1.6292069959789046e-07,
        0,
        6.4218864440917969,
        -8.3963308334350586,
        3.5109024047851562,
        1
      ],
      "name": "Line002"
    },
    {
      "mesh": 5,
      "name": "Line002_pernas_0"
    },
    {
      "children": [
        20
      ],
      "matrix": [
        -1.6292069959789046e-07,
        -0.9999999999999869,
        7.1054273576010019e-15,
        0,
        -1.6292069943135701e-07,
        3.3528735343679728e-14,
        0.9999999999999869,
        0,
        -0.99999999999997358,
        1.6292069943135701e-07,
        -1.6292069959789046e-07,
        0,
        6.4218864440917969,
        -8.3963308334350586,
        3.5109024047851562,
        1
      ],
      "name": "pe 004"
    },
    {
      "mesh": 6,
      "name": "pe 004_pes_0"
    }
  ],
  "samplers": [
    {
      "magFilter": 9729,
      "minFilter": 9987,
      "wrapS": 10497,
      "wrapT": 10497
    }
  ],
  "scene": 0,
  "scenes": [
    {
      "name": "OSG_Scene",
      "nodes": [
        0
      ]
    }
  ],
  "textures": [
    {
      "sampler": 0,
      "source": 0
    },
    {
      "sampler": 0,
      "source": 1
    }
  ]
}

