{
  "accessors": [
    {
      "bufferView": 2,
      "componentType": 5126,
      "count": 252,
      "max": [
        0.64024299383163452,
        0.59517699480056763,
        -0.15072399377822876
      ],
      "min": [
        -0.63799601793289185,
        -0.056718401610851288,
        -0.59967100620269775
      ],
      "type": "VEC3"
    },
    {
      "bufferView": 2,
      "byteOffset": 3024,
      "componentType": 5126,
      "count": 252,
      "max": [
        0.86245483160018921,
        0.90504175424575806,
        0.71858525276184082
      ],
      "min": [
        -0.86246287822723389,
        -0.90504229068756104,
        -0.75475788116455078
      ],
      "type": "VEC3"
    },
    {
      "bufferView": 3,
      "componentType": 5126,
      "count": 252,
      "max": [
        0.78556102514266968,
        0.082138903439044952,
        0.61161500215530396,
        1
      ],
      "min": [
        -0.80765199661254883,
        -0.90449798107147217,
        -0.75794100761413574,
        1
      ],
      "type": "VEC4"
    },
    {
      "bufferView": 1,
      "componentType": 5126,
      "count": 252,
      "max": [
        0.83516097068786621,
        0.42831599712371826
      ],
      "min": [
        0.62088501453399658,
        0.22715799510478973
      ],
      "type": "VEC2"
    },
    {
      "bufferView": 0,
      "componentType": 5125,
      "count": 720,
      "max": [
        251
      ],
      "min": [
        0
      ],
      "type": "SCALAR"
    },
    {
      "bufferView": 2,
      "byteOffset": 6048,
      "componentType": 5126,
      "count": 1827,
      "max": [
        0.66491001844406128,
        0.84020000696182251,
        0.86234599351882935
      ],
      "min": [
        -0.64689099788665771,
        -0.47452399134635925,
        -0.80115997791290283
      ],
      "type": "VEC3"
    },
    {
      "bufferView": 2,
      "byteOffset": 27972,
      "componentType": 5126,
      "count": 1827,
      "max": [
        0.98972076177597046,
        0.99999737739562988,
        0.99998599290847778
      ],
      "min": [
        -0.99242609739303589,
        -0.99002313613891602,
        -0.9897085428237915
      ],
      "type": "VEC3"
    },
    {
      "bufferView": 3,
      "byteOffset": 4032,
      "componentType": 5126,
      "count": 1827,
      "max": [
        0.99999499320983887,
        0.999534010887146,
        0.99989700317382812,
        1
      ],
      "min": [
        -0.97755199670791626,
        -0.99983400106430054,
        -0.99414300918579102,
        1
      ],
      "type": "VEC4"
    },
    {
      "bufferView": 1,
      "byteOffset": 2016,
      "componentType": 5126,
      "count": 1827,
      "max": [
        0.93966597318649292,
        0.99900197982788086
      ],
      "min": [
        0.33022600412368774,
        0.45192199945449829
      ],
      "type": "VEC2"
    },
    {
      "bufferView": 0,
      "byteOffset": 2880,
      "componentType": 5125,
      "count": 10440,
      "max": [
        1826
      ],
      "min": [
        0
      ],
      "type": "SCALAR"
    },
    {
      "bufferView": 2,
      "byteOffset": 49896,
      "componentType": 5126,
      "count": 3153,
      "max": [
        0.99967098236083984,
        0.88055801391601562,
        0.88238000869750977
      ],
      "min": [
        -0.99967098236083984,
        -0.88191097974777222,
        -0.88494199514389038
      ],
      "type": "VEC3"
    },
    {
      "bufferView": 2,
      "byteOffset": 87732,
      "componentType": 5126,
      "count": 3153,
      "max": [
        0.97101187705993652,
        0.99948501586914062,
        0.97751998901367188
      ],
      "min": [
        -0.97094947099685669,
        -0.99994534254074097,
        -0.97683638334274292
      ],
      "type": "VEC3"
    },
    {
      "bufferView": 3,
      "byteOffset": 33264,
      "componentType": 5126,
      "count": 3153,
      "max": [
        1,
        0.93332600593566895,
        0.95756298303604126,
        1
      ],
      "min": [
        -0.99999499320983887,
        -0.90499001741409302,
        -0.99865800142288208,
        -1
      ],
      "type": "VEC4"
    },
    {
      "bufferView": 1,
      "byteOffset": 16632,
      "componentType": 5126,
      "count": 3153,
      "max": [
        0.9392169713973999,
        0.95569998025894165
      ],
      "min": [
        0.00093872699653729796,
        0.0013217000523582101
      ],
      "type": "VEC2"
    },
    {
      "bufferView": 0,
      "byteOffset": 44640,
      "componentType": 5125,
      "count": 12204,
      "max": [
        3152
      ],
      "min": [
        0
      ],
      "type": "SCALAR"
    },
    {
      "bufferView": 2,
      "byteOffset": 125568,
      "componentType": 5126,
      "count": 4409,
      "max": [
        1,
        0.88191097974777222,
        0.88494199514389038
      ],
      "min": [
        -1,
        -0.88191097974777222,
        -0.88494199514389038
      ],
      "type": "VEC3"
    },
    {
      "bufferView": 2,
      "byteOffset": 178476,
      "componentType": 5126,
      "count": 4409,
      "max": [
        0.99997621774673462,
        0.99578076601028442,
        0.99912285804748535
      ],
      "min": [
        -0.99998223781585693,
        -0.99192363023757935,
        -0.99576359987258911
      ],
      "type": "VEC3"
    },
    {
      "bufferView": 3,
      "byteOffset": 83712,
      "componentType": 5126,
      "count": 4409,
      "max": [
        1,
        0.99984002113342285,
        0.99855500459671021,
        1
      ],
      "min": [
        -0.99991798400878906,
        -0.97905999422073364,
        -0.99755400419235229,
        -1
      ],
      "type": "VEC4"
    },
    {
      "bufferView": 1,
      "byteOffset": 41856,
      "componentType": 5126,
      "count": 4409,
      "max": [
        0.93930500745773315,
        0.95612001419067383
      ],
      "min": [
        0.039570201188325882,
        0.00099800399038940668
      ],
      "type": "VEC2"
    },
    {
      "bufferView": 0,
      "byteOffset": 93456,
      "componentType": 5125,
      "count": 14742,
      "max": [
        4408
      ],
      "min": [
        0
      ],
      "type": "SCALAR"
    }
  ],
  "asset": {
    "extras": {
      "author": "Seth Whittemore (https://sketchfab.com/beastmasher)",
      "license": "CC-BY-4.0 (http://creativecommons.org/licenses/by/4.0/)",
      "source": "https://sketchfab.com/models/cbeeb07901ce481e9e7bbe18bdd8b026",
      "title": "Lounge Chair"
    },
    "generator": "Sketchfab-3.19.5",
    "version": "2.0"
  },
  "bufferViews": [
    {
      "buffer": 0,
      "byteLength": 152424,
      "byteOffset": 0,
      "name": "floatBufferViews",
      "target": 34963
    },
    {
      "buffer": 0,
      "byteLength": 77128,
      "byteOffset": 152424,
      "byteStride": 8,
      "name": "floatBufferViews",
      "target": 34962
    },
    {
      "buffer": 0,
      "byteLength": 231384,
      "byteOffset": 229552,
      "byteStride": 12,
      "name": "floatBufferViews",
      "target": 34962
    },
    {
      "buffer": 0,
      "byteLength": 154256,
      "byteOffset": 460936,
      "byteStride": 16,
      "name": "floatBufferViews",
      "target": 34962
    }
  ],
  "buffers": [
    {
      "byteLength": 615192,
      "uri": "scene.bin"
    }
  ],
  "images": [
    {
      "uri": "textures/Cushion_metallicRoughness.png"
    },
    {
      "uri": "textures/Cushion_normal.jpeg"
    },
    {
      "uri": "textures/Cushion_baseColor.jpeg"
    },
    {
      "uri": "textures/Outside_wood_metallicRoughness.png"
    },
    {
      "uri": "textures/Outside_wood_normal.jpeg"
    },
    {
      "uri": "textures/Outside_wood_baseColor.jpeg"
    },
    {
      "uri": "textures/Inside_wood_metallicRoughness.png"
    },
    {
      "uri": "textures/Inside_wood_normal.jpeg"
    },
    {
      "uri": "textures/Inside_wood_baseColor.jpeg"
    },
    {
      "uri": "textures/fittings_metallicRoughness.png"
    },
    {
      "uri": "textures/fittings_normal.jpeg"
    },
    {
      "uri": "textures/fittings_baseColor.jpeg"
    }
  ],
  "materials": [
    {
      "doubleSided": true,
      "emissiveFactor": [
        0,
        0,
        0
      ],
      "name": "Inside_wood",
      "normalTexture": {
        "index": 7,
        "scale": 1,
        "texCoord": 0
      },
      "occlusionTexture": {
        "index": 6,
        "strength": 1,
        "texCoord": 0
      },
      "pbrMetallicRoughness": {
        "baseColorFactor": [
          1,
          1,
          1,
          1
        ],
        "baseColorTexture": {
          "index": 8,
          "texCoord": 0
        },
        "metallicFactor": 1,
        "metallicRoughnessTexture": {
          "index": 6,
          "texCoord": 0
        },
        "roughnessFactor": 1
      }
    },
    {
      "doubleSided": true,
      "emissiveFactor": [
        0,
        0,
        0
      ],
      "name": "Outside_wood",
      "normalTexture": {
        "index": 4,
        "scale": 1,
        "texCoord": 0
      },
      "occlusionTexture": {
        "index": 3,
        "strength": 1,
        "texCoord": 0
      },
      "pbrMetallicRoughness": {
        "baseColorFactor": [
          1,
          1,
          1,
          1
        ],
        "baseColorTexture": {
          "index": 5,
          "texCoord": 0
        },
        "metallicFactor": 1,
        "metallicRoughnessTexture": {
          "index": 3,
          "texCoord": 0
        },
        "roughnessFactor": 1
      }
    },
    {
      "doubleSided": true,
      "emissiveFactor": [
        0,
        0,
        0
      ],
      "name": "Cushion",
      "normalTexture": {
        "index": 1,
        "scale": 1,
        "texCoord": 0
      },
      "occlusionTexture": {
        "index": 0,
        "strength": 1,
        "texCoord": 0
      },
      "pbrMetallicRoughness": {
        "baseColorFactor": [
          1,
          1,
          1,
          1
        ],
        "baseColorTexture": {
          "index": 2,
          "texCoord": 0
        },
        "metallicFactor": 1,
        "metallicRoughnessTexture": {
          "index": 0,
          "texCoord": 0
        },
        "roughnessFactor": 1
      }
    },
    {
      "doubleSided": true,
      "emissiveFactor": [
        0,
        0,
        0
      ],
      "name": "fittings",
      "normalTexture": {
        "index": 10,
        "scale": 1,
        "texCoord": 0
      },
      "occlusionTexture": {
        "index": 9,
        "strength": 1,
        "texCoord": 0
      },
      "pbrMetallicRoughness": {
        "baseColorFactor": [
          1,
          1,
          1,
          1
        ],
        "baseColorTexture": {
          "index": 11,
          "texCoord": 0
        },
        "metallicFactor": 1,
        "metallicRoughnessTexture": {
          "index": 9,
          "texCoord": 0
        },
        "roughnessFactor": 1
      }
    }
  ],
  "meshes": [
    {
      "name": "defaultMaterial",
      "primitives": [
        {
          "attributes": {
            "NORMAL": 1,
            "POSITION": 0,
            "TANGENT": 2,
            "TEXCOORD_0": 3
          },
          "indices": 4,
          "material": 3,
          "mode": 4
        }
      ]
    },
    {
      "name": "defaultMaterial",
      "primitives": [
        {
          "attributes": {
            "NORMAL": 6,
            "POSITION": 5,
            "TANGENT": 7,
            "TEXCOORD_0": 8
          },
          "indices": 9,
          "material": 2,
          "mode": 4
        }
      ]
    },
    {
      "name": "defaultMaterial",
      "primitives": [
        {
          "attributes": {
            "NORMAL": 11,
            "POSITION": 10,
            "TANGENT": 12,
            "TEXCOORD_0": 13
          },
          "indices": 14,
          "material": 1,
          "mode": 4
        }
      ]
    },
    {
      "name": "defaultMaterial",
      "primitives": [
        {
          "attributes": {
            "NORMAL": 16,
            "POSITION": 15,
            "TANGENT": 17,
            "TEXCOORD_0": 18
          },
          "indices": 19,
          "material": 0,
          "mode": 4
        }
      ]
    }
  ],
  "nodes": [
    {
      "children": [
        1
      ],
      "name": "RootNode (gltf orientation matrix)",
      "rotation": [
        -0.70710678118654746,
        -0,
        -0,
        0.70710678118654757
      ]
    },
    {
      "children": [
        2
      ],
      "name": "RootNode (model correction matrix)"
    },
    {
      "children": [
        3,
        5,
        7,
        9
      ],
      "matrix": [
        1,
        0,
        0,
        0,
        0,
        -4.3711390063094768e-08,
        0.999999999999999,
        0,
        0,
        -0.999999999999999,
        -4.3711390063094768e-08,
        0,
        0,
        0,
        0,
        1
      ],
      "name": "Collada visual scene group"
    },
    {
      "children": [
        4
      ],
      "name": "curve3_low"
    },
    {
      "mesh": 0,
      "name": "defaultMaterial"
    },
    {
      "children": [
        6
      ],
      "name": "curve3_low"
    },
    {
      "mesh": 1,
      "name": "defaultMaterial"
    },
    {
      "children": [
        8
      ],
      "name": "curve3_low"
    },
    {
      "mesh": 2,
      "name": "defaultMaterial"
    },
    {
      "children": [
        10
      ],
      "name": "curve3_low"
    },
    {
      "mesh": 3,
      "name": "defaultMaterial"
    }
  ],
  "samplers": [
    {
      "magFilter": 9729,
      "minFilter": 9987,
      "wrapS": 10497,
      "wrapT": 10497
    }
  ],
  "scene": 0,
  "scenes": [
    {
      "name": "OSG_Scene",
      "nodes": [
        0
      ]
    }
  ],
  "textures": [
    {
      "sampler": 0,
      "source": 0
    },
    {
      "sampler": 0,
      "source": 1
    },
    {
      "sampler": 0,
      "source": 2
    },
    {
      "sampler": 0,
      "source": 3
    },
    {
      "sampler": 0,
      "source": 4
    },
    {
      "sampler": 0,
      "source": 5
    },
    {
      "sampler": 0,
      "source": 6
    },
    {
      "sampler": 0,
      "source": 7
    },
    {
      "sampler": 0,
      "source": 8
    },
    {
      "sampler": 0,
      "source": 9
    },
    {
      "sampler": 0,
      "source": 10
    },
    {
      "sampler": 0,
      "source": 11
    }
  ]
}

